<svg xmlns="http://www.w3.org/2000/svg" width="51.305" height="51.307" viewBox="0 0 51.305 51.307"><defs><style>.sdkfj{fill:#455096;}</style></defs><g transform="translate(-0.5 0.001)"><path class="sdkfj" d="M231.322,222a8.818,8.818,0,1,0,8.818,8.818A8.828,8.828,0,0,0,231.322,222Zm0,15.633a6.814,6.814,0,1,1,6.814-6.814A6.822,6.822,0,0,1,231.322,237.633Zm0,0" transform="translate(-199.757 -199.754)"/><path class="sdkfj" d="M50.811,45.505l-7.953-7.953a13.006,13.006,0,0,0-1.877-15.481V10.821h0a1,1,0,0,0-.291-.709L30.869.293A1,1,0,0,0,30.16,0a.007.007,0,0,1,0,0H3.506A3.01,3.01,0,0,0,.5,3.005V48.3a3.01,3.01,0,0,0,3.006,3.006H37.975A3.01,3.01,0,0,0,40.982,48.3V45.286l5.024,5.025a3.4,3.4,0,1,0,4.805-4.806ZM31.565,42.087A11.023,11.023,0,1,1,42.588,31.064,11.036,11.036,0,0,1,31.565,42.087Zm-.4-38.666,6.4,6.4h-5.4a1,1,0,0,1-1-1ZM38.977,48.3a1,1,0,0,1-1,1H3.506a1,1,0,0,1-1-1V3.006a1,1,0,0,1,1-1H29.158V8.816a3.01,3.01,0,0,0,3.006,3.006h6.813v8.535a13.024,13.024,0,0,0-19.8,14.728H6.928a1,1,0,0,0,0,2h12.8A.994.994,0,0,0,20,37.051a13.018,13.018,0,0,0,18.056,5.307l.925.925Zm10.417.594a1.4,1.4,0,0,1-1.971,0l-7.69-7.69A13.141,13.141,0,0,0,41.7,39.233l7.69,7.689a1.4,1.4,0,0,1,0,1.971Zm0,0"/><path class="sdkfj" d="M301.506,265a1,1,0,0,0,0,2,2.508,2.508,0,0,1,2.5,2.5,1,1,0,0,0,2,0A4.514,4.514,0,0,0,301.506,265Zm0,0" transform="translate(-269.941 -238.449)"/><path class="sdkfj" d="M64.672,280.793H55.654a1,1,0,0,0,0,2h9.018a1,1,0,0,0,0-2Zm0,0" transform="translate(-48.726 -252.656)"/><path class="sdkfj" d="M65.266,211.461H55.654a1,1,0,1,0,0,2h9.612a1,1,0,1,0,0-2Zm0,0" transform="translate(-48.726 -190.272)"/><path class="sdkfj" d="M181.5,419.461a1,1,0,1,0,.709.294A1.008,1.008,0,0,0,181.5,419.461Zm0,0" transform="translate(-161.963 -377.428)"/><path class="sdkfj" d="M64.15,419.461h-8.5a1,1,0,0,0,0,2h8.5a1,1,0,0,0,0-2Zm0,0" transform="translate(-48.726 -377.428)"/><path class="sdkfj" d="M55.65,144.133a1,1,0,1,0-.709-.294A1.008,1.008,0,0,0,55.65,144.133Zm0,0" transform="translate(-48.722 -127.887)"/><path class="sdkfj" d="M113.018,142.129H98.041a1,1,0,1,0,0,2h14.977a1,1,0,1,0,0-2Zm0,0" transform="translate(-86.865 -127.887)"/><path class="sdkfj" d="M55.654,74.8H74.879a1,1,0,0,0,0-2H55.654a1,1,0,0,0,0,2Zm0,0" transform="translate(-48.726 -65.499)"/></g></svg>
