<svg class="detail" xmlns="http://www.w3.org/2000/svg" width="1118.19" height="813.106" viewBox="0 0 1118.19 813.106"><defs><style>.a{fill:#e8875a;}</style></defs><path class="a" d="M1301.624,558.519,1131.415,361.35a52.283,52.283,0,0,0-39.565-18.112H912.428V239.568A52.275,52.275,0,0,0,860.16,187.3H248.4a52.275,52.275,0,0,0-52.268,52.268V809.511c0,95.054,68.965,180.773,163.57,190,100.207,9.782,185.024-62.562,197.431-157.36h253.1c11.646,89.029,87.159,158.25,179.313,158.25s167.661-69.221,179.306-158.25h93.2a52.262,52.262,0,0,0,52.268-52.268V592.675a52.267,52.267,0,0,0-12.7-34.156m-923.8,337.332A77.2,77.2,0,0,1,300.7,818.724V291.861H807.873V737.6H539.512c-27.248-54.041-80.149-93.037-142.9-99.586-10.058-1.05-18.784,7.631-18.784,17.753v70.213c0,8.867,6.844,15.4,15.532,17.183a77.134,77.134,0,0,1-15.532,152.686M1209.771,737.6h-58.529c-27.242-54.041-80.149-93.037-142.9-99.586-10.058-1.05-18.784,7.631-18.784,17.753v70.213c0,8.867,6.844,15.4,15.525,17.183a77.132,77.132,0,1,1-92.653,75.559V447.793h155.452l141.892,164.338Z" transform="translate(-196.136 -187.3)"/></svg>
