<svg xmlns="http://www.w3.org/2000/svg" width="52" height="52" viewBox="0 0 52 52"><defs><style>.impre{fill:#455096;}</style></defs><g transform="translate(0 0)"><path class="impre" d="M51.941,20.51c-.007-.021-.01-.042-.019-.062a.859.859,0,0,0-.147-.231L44.4,12.1a5.211,5.211,0,0,0-3.848-1.7H36.4V1.733A1.733,1.733,0,0,0,34.667,0H17.333A1.733,1.733,0,0,0,15.6,1.733V10.4H11.45A5.211,5.211,0,0,0,7.6,12.1L.225,20.217a.859.859,0,0,0-.147.231c-.009.02-.012.041-.019.062a.834.834,0,0,0-.049.244c0,.016-.01.03-.01.047V37.267a5.205,5.205,0,0,0,5.2,5.2h6.067l-3.12,4.16A1.733,1.733,0,0,0,9.533,49.4h5.035l-.068.15A1.733,1.733,0,0,0,16.079,52H35.921A1.733,1.733,0,0,0,37.5,49.55l-.068-.15h5.036a1.733,1.733,0,0,0,1.387-2.773l-3.12-4.16H46.8a5.205,5.205,0,0,0,5.2-5.2V20.8c0-.016-.009-.03-.01-.047A.836.836,0,0,0,51.941,20.51ZM17.333,1.733H34.667V15.6H17.333ZM8.885,13.269a3.472,3.472,0,0,1,2.565-1.135H15.6V15.6h-.867a.867.867,0,0,0,0,1.733H37.267a.867.867,0,0,0,0-1.733H36.4V12.133h4.15a3.472,3.472,0,0,1,2.565,1.135l6.059,6.665H2.826ZM39,40.156l-1.733-2.311V36.4a2.6,2.6,0,0,0-2.6-2.6H17.333a2.6,2.6,0,0,0-2.6,2.6v1.445L13,40.156V33.8a6.074,6.074,0,0,1,6.067-6.067H32.933A6.074,6.074,0,0,1,39,33.8Zm-3.467-2.889H16.467V36.4a.867.867,0,0,1,.867-.867H34.667a.867.867,0,0,1,.867.867Zm-19.454,13,3.546-7.8h12.75l3.549,7.8Zm20.563-2.6-2.91-6.4-.01-.021a.844.844,0,0,0-.162-.233c-.018-.019-.039-.034-.058-.051a.867.867,0,0,0-.188-.127.824.824,0,0,0-.079-.036.866.866,0,0,0-.3-.062H19.067a.867.867,0,0,0-.3.061.821.821,0,0,0-.079.036.866.866,0,0,0-.188.127c-.019.017-.04.032-.058.051a.844.844,0,0,0-.162.233l-.01.021-2.911,6.4H9.533L16.033,39H35.967l6.5,8.667Zm13.624-10.4A3.467,3.467,0,0,1,46.8,40.733H40.733V33.8a7.81,7.81,0,0,0-7.8-7.8H19.067a7.81,7.81,0,0,0-7.8,7.8v6.933H5.2a3.467,3.467,0,0,1-3.467-3.467v-15.6H50.267Z" transform="translate(0 0)"/><path class="impre" d="M52.6,33.2A2.6,2.6,0,1,0,50,30.6,2.6,2.6,0,0,0,52.6,33.2Zm0-3.467a.867.867,0,1,1-.867.867A.867.867,0,0,1,52.6,29.733Z" transform="translate(-6.667 -3.733)"/><circle class="impre" cx="0.5" cy="0.5" r="0.5" transform="translate(46 30.667)"/><circle class="impre" cx="0.5" cy="0.5" r="0.5" transform="translate(46 33.667)"/><circle class="impre" cx="0.5" cy="0.5" r="0.5" transform="translate(46 36.667)"/><path class="impre" d="M25.867,52.733H32.8A.867.867,0,1,0,32.8,51H25.867a.867.867,0,1,0,0,1.733Z" transform="translate(-3.333 -6.8)"/><path class="impre" d="M34.267,54h-10.4a.867.867,0,1,0,0,1.733h10.4a.867.867,0,1,0,0-1.733Z" transform="translate(-3.067 -7.2)"/><path class="impre" d="M4.867,29.6a.867.867,0,0,0,.867-.867v-.867a.867.867,0,0,0-1.733,0v.867A.867.867,0,0,0,4.867,29.6Z" transform="translate(-0.533 -3.6)"/><path class="impre" d="M4.867,38.933a.867.867,0,0,0,.867-.867v-5.2a.867.867,0,0,0-1.733,0v5.2A.867.867,0,0,0,4.867,38.933Z" transform="translate(-0.533 -4.267)"/></g></svg>
