<svg xmlns="http://www.w3.org/2000/svg" width="58.393" height="56.491" viewBox="0 0 58.393 56.491"><defs><style>.f87fb0b{fill:#455096;}</style></defs><g transform="translate(0 0)"><path class="f87fb0b" d="M450.568,268.625a1.143,1.143,0,0,1-.224-.023,1.185,1.185,0,0,1-.213-.065,1.239,1.239,0,0,1-.2-.105,1.192,1.192,0,0,1-.172-.141,1.132,1.132,0,0,1-.313-1.03,1.179,1.179,0,0,1,.065-.213,1.215,1.215,0,0,1,.105-.2,1.2,1.2,0,0,1,.143-.173,1.11,1.11,0,0,1,.369-.246,1.145,1.145,0,0,1,.213-.065,1.133,1.133,0,0,1,.659.065,1.212,1.212,0,0,1,.2.1,1.287,1.287,0,0,1,.173.142,1.193,1.193,0,0,1,.142.173,1.213,1.213,0,0,1,.1.2,1.137,1.137,0,0,1-.246,1.243,1.252,1.252,0,0,1-.173.141,1.239,1.239,0,0,1-.2.105,1.175,1.175,0,0,1-.213.065A1.132,1.132,0,0,1,450.568,268.625Zm0,0" transform="translate(-398.17 -235.967)"/><path class="f87fb0b" d="M192.744,268.625H164.23a1.14,1.14,0,0,1,0-2.281h28.513a1.14,1.14,0,1,1,0,2.281Zm0,0" transform="translate(-144.49 -235.968)"/><path class="f87fb0b" d="M187.468,316.245H164.23a1.14,1.14,0,1,1,0-2.281h23.238a1.14,1.14,0,1,1,0,2.281Zm0,0" transform="translate(-144.49 -278.158)"/><path class="f87fb0b" d="M170.938,44.976c0-.038,0-.076,0-.114V1.141A1.141,1.141,0,0,0,169.8,0H128.179a1.14,1.14,0,0,0-1.14,1.14V55.35a1.14,1.14,0,0,0,1.14,1.14h31.357a1.142,1.142,0,0,0,.807-.334L170.6,45.9a1.145,1.145,0,0,0,.334-.92ZM158.681,21.92a4.414,4.414,0,0,0-8.372-.474V15.507h8.051a1.315,1.315,0,0,1,1.313,1.313v5.1Zm-2.131,1.14a2.133,2.133,0,1,1-2.133-2.133A2.136,2.136,0,0,1,156.549,23.06Zm-6.241-9.834V8.962H153.2a2.435,2.435,0,0,1,2.331,1.708l.809,2.557ZM129.32,2.281h18.708V21.919h-7.3a4.414,4.414,0,0,0-8.528,0H129.32ZM138.6,23.06a2.133,2.133,0,1,1-2.133-2.133A2.136,2.136,0,0,1,138.6,23.06ZM129.32,24.2H132.2a4.414,4.414,0,0,0,8.528,0h9.425a4.414,4.414,0,0,0,8.529,0h2.133a1.14,1.14,0,0,0,1.14-1.14V16.82a3.6,3.6,0,0,0-3.218-3.574L157.7,9.981a4.707,4.707,0,0,0-4.505-3.3h-2.889v-4.4h18.348V43.949h-9.12a1.14,1.14,0,0,0-1.14,1.14v9.12H129.32Zm31.357,28.4V46.23h6.367Zm0,0" transform="translate(-112.55)"/><path class="f87fb0b" d="M185.23,372.2h-21a1.14,1.14,0,0,1-1.14-1.14V366.5a1.14,1.14,0,0,1,1.14-1.14h21a1.14,1.14,0,0,1,1.14,1.14v4.561A1.14,1.14,0,0,1,185.23,372.2Zm-19.859-2.281h18.718V367.64H165.371Zm0,0" transform="translate(-144.49 -323.691)"/><path class="f87fb0b" d="M9.088,12.4H6.848a3.546,3.546,0,0,0-3.542,3.542v2.995H1.14A1.14,1.14,0,0,0,0,20.079V39.331a1.14,1.14,0,0,0,2.281,0V21.219H3.306V55.4a10.685,10.685,0,0,0,.342,2.68l0,.008,0,.011a1.145,1.145,0,0,0,.063.175c.273.685,1.317,2.859,3.111,6.48v1.314a1.14,1.14,0,1,0,2.281,0V64.75c1.794-3.619,2.838-5.793,3.111-6.479a1.182,1.182,0,0,0,.066-.186A10.683,10.683,0,0,0,12.63,55.4V15.944A3.546,3.546,0,0,0,9.088,12.4Zm-3.5,43V24.591h4.762V55.4a8.355,8.355,0,0,1-.1,1.26H5.683a8.355,8.355,0,0,1-.1-1.26Zm0-39.454a1.263,1.263,0,0,1,1.261-1.261h2.24a1.263,1.263,0,0,1,1.261,1.261V22.31H5.587ZM7.968,61.906c-.523-1.064-1.045-2.137-1.443-2.967H9.411c-.387.808-.9,1.86-1.443,2.967Zm0,0" transform="translate(0 -10.988)"/></g></svg>
