<svg xmlns="http://www.w3.org/2000/svg" width="54.182" height="62.518" viewBox="0 0 54.182 62.518"><defs><style>.fe61cff{fill:#455096;}</style></defs><g transform="translate(-34.135 0)"><g transform="translate(34.135)"><g transform="translate(0)"><path class="fe61cff" d="M79.981,29.8V12.5c0-.022-.011-.041-.013-.063a1.046,1.046,0,0,0-.289-.669l0-.005L68.215.306h0a1.026,1.026,0,0,0-.3-.2c-.031-.015-.063-.023-.1-.034a1.022,1.022,0,0,0-.278-.056C67.519.011,67.5,0,67.478,0H37.261a3.129,3.129,0,0,0-3.126,3.126v52.1a3.129,3.129,0,0,0,3.126,3.126H59.213A17.7,17.7,0,1,0,79.981,29.8ZM68.52,3.557l7.9,7.9H69.562A1.043,1.043,0,0,1,68.52,10.42ZM37.261,56.266a1.043,1.043,0,0,1-1.042-1.042V3.126a1.043,1.043,0,0,1,1.042-1.042H66.436V10.42a3.129,3.129,0,0,0,3.126,3.126H77.9V28.681a17.462,17.462,0,0,0-13.222-.548H52.89a3.126,3.126,0,1,0,0,6.252h3.42a17.669,17.669,0,0,0-2.26,4.168H52.89a3.126,3.126,0,1,0,0,6.252,17.624,17.624,0,0,0,4.232,11.462H37.261ZM60.578,30.217A17.845,17.845,0,0,0,58.07,32.3H52.89a1.043,1.043,0,0,1-1.042-1.042,1.016,1.016,0,0,1,.318-.742,1,1,0,0,1,.723-.3h7.687Zm-7.171,10.42a17.536,17.536,0,0,0-.382,2.084H52.89a1.043,1.043,0,0,1-1.042-1.042,1.016,1.016,0,0,1,.318-.742,1,1,0,0,1,.723-.3h.516Zm17.2,19.8A15.629,15.629,0,1,1,86.233,44.8,15.629,15.629,0,0,1,70.6,60.434Z" transform="translate(-34.135)"/><path class="fe61cff" d="M82.011,59.733H79.927A3.129,3.129,0,0,0,76.8,62.859v2.084a3.129,3.129,0,0,0,3.126,3.126h2.084a3.129,3.129,0,0,0,3.126-3.126V62.859A3.129,3.129,0,0,0,82.011,59.733Zm1.042,5.21a1.043,1.043,0,0,1-1.042,1.042H79.927a1.043,1.043,0,0,1-1.042-1.042V62.859a1.043,1.043,0,0,1,1.042-1.042h2.084a1.043,1.043,0,0,1,1.042,1.042Z" transform="translate(-71.591 -52.439)"/><path class="fe61cff" d="M165.261,65.985H173.6a3.126,3.126,0,1,0,0-6.252h-8.336a3.126,3.126,0,0,0,0,6.252Zm0-4.168H173.6a1.042,1.042,0,1,1,0,2.084h-8.336a1.042,1.042,0,1,1,0-2.084Z" transform="translate(-146.506 -52.439)"/><path class="fe61cff" d="M82.011,145.067H79.927a3.129,3.129,0,0,0-3.126,3.126v2.084a3.129,3.129,0,0,0,3.126,3.126h2.084a3.129,3.129,0,0,0,3.126-3.126v-2.084A3.129,3.129,0,0,0,82.011,145.067Zm1.042,5.21a1.043,1.043,0,0,1-1.042,1.042H79.927a1.043,1.043,0,0,1-1.042-1.042v-2.084a1.043,1.043,0,0,1,1.042-1.042h2.084a1.043,1.043,0,0,1,1.042,1.042Z" transform="translate(-71.591 -127.354)"/><path class="fe61cff" d="M165.261,151.319h19.8a3.126,3.126,0,0,0,0-6.252h-19.8a3.126,3.126,0,1,0,0,6.252Zm0-4.168h19.8a1.042,1.042,0,0,1,0,2.084h-19.8a1.042,1.042,0,1,1,0-2.084Z" transform="translate(-146.506 -127.354)"/><path class="fe61cff" d="M82.011,230.4H79.927a3.129,3.129,0,0,0-3.126,3.126v2.084a3.129,3.129,0,0,0,3.126,3.126h2.084a3.129,3.129,0,0,0,3.126-3.126v-2.084A3.129,3.129,0,0,0,82.011,230.4Zm1.042,5.21a1.043,1.043,0,0,1-1.042,1.042H79.927a1.043,1.043,0,0,1-1.042-1.042v-2.084a1.043,1.043,0,0,1,1.042-1.042h2.084a1.043,1.043,0,0,1,1.042,1.042Z" transform="translate(-71.591 -202.267)"/><path class="fe61cff" d="M82.011,315.733H79.927a3.129,3.129,0,0,0-3.126,3.126v2.084a3.129,3.129,0,0,0,3.126,3.126h2.084a3.129,3.129,0,0,0,3.126-3.126v-2.084A3.129,3.129,0,0,0,82.011,315.733Zm1.042,5.21a1.043,1.043,0,0,1-1.042,1.042H79.927a1.043,1.043,0,0,1-1.042-1.042v-2.084a1.043,1.043,0,0,1,1.042-1.042h2.084a1.043,1.043,0,0,1,1.042,1.042Z" transform="translate(-71.591 -277.181)"/><path class="fe61cff" d="M280.589,286.612h-.8v-10.42a3.129,3.129,0,0,0-3.126-3.126h-4.168a3.129,3.129,0,0,0-3.126,3.126v10.42h-.8A2.081,2.081,0,0,0,267,290.076l6.013,6.773a2.086,2.086,0,0,0,3.121,0l6.011-6.772a2.082,2.082,0,0,0-1.56-3.465Zm0,2.079h0l-6.016,6.773-6.01-6.769h1.844a1.042,1.042,0,0,0,1.042-1.042V276.193a1.043,1.043,0,0,1,1.042-1.042h4.168a1.043,1.043,0,0,1,1.042,1.042v11.462a1.042,1.042,0,0,0,1.042,1.042l1.852-.011Z" transform="translate(-238.109 -239.724)"/></g></g></g></svg>
