<svg xmlns="http://www.w3.org/2000/svg" viewBox="0 0 975 138">
  <g>
    <path d="M238.15,443.18c4.12,3.54,3.32,8.36,3.12,12.88-.15,3.33.69,5.23,4.33,4.52,14-2.74,23,3.66,31.47,14.42,6.32,8,10.79,15.48,9.26,25.83-.41,2.77,0,5.64-.07,8.47-.09,5.23-2,7.14-7.2,7.38a12.28,12.28,0,0,1-2.5,0c-4.37-.69-6.62.79-8.21,5.31-2.74,7.86-10.39,12.26-18.84,12.13-8.27-.12-15.64-5-18.28-13-1.24-3.74-3-4.71-6.66-4.52-6.31.32-12.65.17-19,0-2.59-.06-3.95.38-4.9,3.32a20,20,0,0,1-22.51,14c-9.13-1.32-16.89-10.09-17-20-.2-21.27,0-42.55-.17-63.82,0-3.06,1.86-4.74,3.14-6.94h3c1.13,1.39,2.72,1,4.16,1q29.82,0,59.65,0c1.44,0,3,.41,4.17-1Zm-65.21,42.76h0c0,9.47-.14,18.95.07,28.42.1,4.59,2.9,7.38,7.47,7.91s7.77-1.71,9.17-6-.13-8.23-4-9.61c-4.87-1.74-4.28-5-4.43-8.66-.16-3.86,1.72-4.67,5-3.87a19,19,0,0,1,11.67,8,5.54,5.54,0,0,0,5.29,2.82c7.49-.15,15-.19,22.47,0,3.16.09,3.92-1.08,3.89-4.05-.13-14-.18-27.92,0-41.88,0-3.54-1.4-4-4.39-4-16,.1-32,.16-47.95,0-3.64,0-4.42,1.22-4.34,4.57C173.08,468.32,172.94,477.13,172.94,485.94Zm68.39,8.15c0,6.65-.18,13.3.06,19.94.17,4.46,2.65,7.49,7.24,8.22,4.33.69,7.52-1.2,9.29-5.1,1.69-3.72.37-9-3.41-10.33-4.68-1.68-4.37-4.82-4.55-8.55-.22-4.65,2.07-5,5.56-3.94a19.13,19.13,0,0,1,11.33,8.46c1.61,2.67,3.91,2.28,6.11,1.92,2.46-.4,1.27-2.63,1.55-4.1,1.45-7.64-2.71-12.75-7-18.54-5.89-7.93-12.63-11.57-22.29-9.8a1.68,1.68,0,0,1-.5,0c-2.55-.3-3.51.7-3.44,3.37C241.44,481.79,241.32,487.94,241.33,494.09Z" transform="translate(-153 -443)" style="fill: #ec6b3d"/>
    <path d="M153.18,546q66.7,0,133.41-.09c4.18,0,7.07,1.14,7.59,5.91.48,4.47-.88,6.06-5.7,6-43.31-.18-86.62-.11-129.94-.09a13.91,13.91,0,0,1-5.36-.79Z" transform="translate(-153 -443)" style="fill: #ed6c3f"/>
    <path d="M153.18,569.92c2-.95,4.19-.8,6.35-.8H282.39c11.25,0,11.8.55,11.75,11.78-45.66,0-91.31,0-137,.1-3.43,0-4.58-.65-4.06-4.1A49.21,49.21,0,0,0,153.18,569.92Z" transform="translate(-153 -443)" style="fill: #ed6c3f"/>
    <path d="M235.16,443.18c-1.14,1.39-2.73,1-4.17,1q-29.82,0-59.65,0c-1.44,0-3,.41-4.16-1Z" transform="translate(-153 -443)" style="fill: #ed6c3f"/>
    <path d="M777.91,527.27c.55-7.82-1-17.33,1-26.72,3.23-15.2,15.18-23.83,32.43-23.44,15.83.35,27.66,9.92,29.62,24.93,2.2,16.86.5,33.86.9,50.8,0,1.19-.21,2.7-1.5,2.84-4.76.55-9.63,1.12-14.3-.29-2.34-.71-2.6-3.22-2.6-5.48,0-4.32-.12-8.65,0-13,.09-2.59-.8-3.5-3.43-3.45-6.82.14-13.65.18-20.48,0-3-.09-3.6,1.22-3.51,3.86.16,4.48.05,9,0,13.46,0,3.46-1.8,5-5.24,5.28-12.94,1-12.94,1-12.94-11.73Zm31.9-12.17h3.48c11.29,0,12.57-1.81,8.92-12.68-2-5.8-5.71-8.21-12.67-8.12-6.81.1-10.85,2.74-12.29,8.61-.75,3-.78,6.22-1.15,9.33-.26,2.11.56,3,2.77,2.9C802.51,515,806.16,515.1,809.81,515.1Z" transform="translate(-153 -443)" style="fill: #342e6d"/>
    <path d="M943,518.25c0,6.15-.08,12.3,0,18.45.05,2.57-.94,3.71-3.5,3.52-.66-.05-1.33,0-2,0-8.6,0-9.15-.48-9.16-8.89V510.4c0-1.33,0-2.66,0-4-.31-11.24-2.91-14.66-11.1-14.58-7.85.08-10.49,3.63-10.58,14.55-.07,9.14-.27,18.29.09,27.41.19,4.88-1,7.36-6.3,6.45a10,10,0,0,0-3,0c-4.34.62-5.8-1.09-5.67-5.54.3-10.29.25-20.6,0-30.9-.21-9.19-4-12.49-12.67-11.92-4.43.3-7.19,2.49-8.16,6.69a37.21,37.21,0,0,0-.92,7.88c-.11,9.14-.14,18.28,0,27.41.06,4.37-1.65,6.59-6.17,6.37a43.72,43.72,0,0,0-5,0c-2.61.18-3.61-1.08-3.59-3.53.08-12-.51-24,.36-35.87,1.48-20.42,22.38-30.59,39.92-19.72,2.84,1.77,4.41,1.76,7.29,0,9.05-5.49,18.72-5.64,28.07-.8,9,4.63,11.91,12.92,12,22.47C943.08,508,943,513.1,943,518.25Z" transform="translate(-153 -443)" style="fill: #35306e"/>
    <path d="M722,511.29c7.93-10.58,15.12-19.91,22-29.47,2.48-3.45,5.16-5.25,9.53-4.82,3.63.36,7.33,0,11,.1,1.42,0,3.29-.61,4,1.2.52,1.4-.83,2.41-1.65,3.42-7.75,9.56-15.33,19.28-23.37,28.59-3.14,3.65-3.35,6.05-.3,9.93,7.91,10.06,15.31,20.52,22.87,30.86.83,1.14,2.45,2.18,1.68,3.86s-2.63,1-4,1.08c-3.83.08-7.7-.3-11.48.11-5,.53-7.94-1.64-10.57-5.67-6-9.18-12.39-18.09-18.65-27.16-1.74.95-.91,2.43-.92,3.55-.09,7.65-.15,15.3,0,23,.08,4.47-1.9,6.34-6.31,6.27-14-.24-11.83,1.68-11.89-11.34-.11-20.46.08-40.92-.12-61.37,0-4.57,1-6.54,6.07-6.42C722,477.25,722,477,722,489.4Z" transform="translate(-153 -443)" style="fill: #322c6c"/>
    <path d="M463.73,525.86c-4.66,0-9.33.13-14-.05-2.76-.11-3.06,1.21-2.57,3.34,1.07,4.65,4.35,6.85,8.72,7.83,6.75,1.51,13.6.71,20.41.87,6,.14,7.06,1,7.07,7,0,13,1,11.14-11.13,11.24-4.83,0-9.67.1-14.48-.14-16-.78-26.73-10.48-28.83-26.38a98.67,98.67,0,0,1-.06-25.35c2.07-16.51,12.7-26.21,29.34-27,7-.32,14,0,21-.17,3-.06,4.22,1.11,4.22,4.08,0,15.07,1.09,14.34-13.35,14.18-4.67-.05-9.34-.12-13.93.85-4.32.9-7.74,3-8.9,7.65-.6,2.39-.17,3.65,2.84,3.59,9.15-.18,18.31.08,27.46-.12,4.15-.09,6,1.05,6,5.6-.05,13,.13,13-12.76,13Z" transform="translate(-153 -443)" style="fill: #342e6d"/>
    <path d="M563.63,504.35c0-7.65.07-15.29,0-22.94,0-3.15,1.11-4.32,4.39-4.41,14-.38,14-.47,14,13.66,0,11-.13,21.95.13,32.91.23,9.3,4.21,13.77,12,14.28,9.61.62,14.64-3.71,14.91-13.72.35-12.62.18-25.25.21-37.89,0-8.42.74-9.22,9-9.16,10,.08,9.62-1.64,9.48,9.74-.16,13.95.76,27.93-.53,41.86C625.52,546,613.18,556.3,594.65,556c-17.54-.26-29.62-11.2-30.63-28.27-.46-7.78-.08-15.61-.08-23.42Z" transform="translate(-153 -443)" style="fill: #342f6d"/>
    <path d="M522.59,555.89a104.25,104.25,0,0,1-20.32-2c-3.06-.55-4.52-2-4.49-5.34.16-14.73-1.06-11.85,11.91-10.2,5.93.76,11.82,2.1,17.85,1.07,2.47-.42,5.17-.78,5.89-3.76.76-3.18-1.51-4.95-3.77-6.37-7-4.42-14.18-8.65-21.22-13.06-6.55-4.11-10.9-9.76-11.33-17.73-.59-10.89,5-18.17,15.71-20.33,11.47-2.33,22.84-.84,34.16,1.41,2.28.46,3.27,1.7,3.52,4.08,1.35,12.75.87,13.29-11.42,11.46-5.76-.86-11.52-1.83-17.37-1.3-2.46.22-5.42.18-6.07,3.25-.58,2.76,1.92,4,3.89,5.17,7.22,4.43,14.54,8.69,21.68,13.26,5.79,3.71,10.19,8.55,10.86,15.84,1.27,13.92-7.07,23.26-22,24.53C527.6,556.07,525.08,555.89,522.59,555.89Z" transform="translate(-153 -443)" style="fill: #342e6d"/>
    <path d="M382.1,500c10,0,20,.1,29.95-.06,3.46-.05,4.75,1.28,4.8,4.65.12,7.83-4.19,13-12.1,13.46-3.29.21-3,1.22-1.94,3.55,4.27,9.53,8.42,19.11,12.55,28.7,2.14,5,1.58,5.86-3.81,5.79-16.16-.2-12.4,2.27-18.82-11.93-3.35-7.4-6.63-14.83-9.75-22.33-1.08-2.6-2.36-3.78-5.45-3.77-12,0-12-.11-12,11.75,0,6.48.05,13,0,19.43-.06,5.7-1.17,6.9-6.67,6.85-13.82-.12-11.5,1.86-11.63-11.46-.13-12.79.2-25.58-.14-38.36-.14-5.19,1.68-6.55,6.62-6.37C363.13,500.19,372.62,500,382.1,500Z" transform="translate(-153 -443)" style="fill: #322c6c"/>
    <path d="M952,508.53c0-8.8.16-17.61-.07-26.4-.09-4,1.34-5.28,5.23-5.12,6.48.26,13-.09,19.46.17,13.22.55,21.8,8.17,23.56,21.22a72.71,72.71,0,0,1-.25,22.33c-1.84,10.62-9.34,18.09-20.11,19.07-8.09.73-16.28.29-24.43.42-3.1,0-3.41-1.9-3.4-4.29C952.06,526.79,952,517.66,952,508.53Zm14.83.15v8c0,10.29,0,10.29,10.51,8.52,6.09-1,8.41-3.58,8.52-9.65.09-4.83,0-9.65,0-14.47,0-3.41-1.32-6.19-4.51-7.72-4.07-1.94-8.47-1.44-12.78-1.5-2.12,0-1.71,1.62-1.72,2.87C966.85,499.37,966.87,504,966.87,508.68Z" transform="translate(-153 -443)" style="fill: #342f6d"/>
    <path d="M641.13,516.44c0-11.29.12-22.58-.06-33.87-.06-4,1.16-5.59,5.4-5.58,13.1,0,13.1-.13,13.1,13.1,0,14.45.1,28.89-.07,43.33,0,3.39.79,4.65,4.39,4.52,7.48-.27,15,0,22.45-.1,4.23-.07,6.12,1.91,6.1,6-.07,15,1.37,12-11.47,12.2-11.48.16-23-.1-34.43.11-4,.07-5.59-1.08-5.49-5.34C641.3,539.36,641.13,527.9,641.13,516.44Z" transform="translate(-153 -443)" style="fill: #352f6e"/>
    <path d="M1085.55,540.37c-3.49-.18-7.1.17-10.44-.64-8.6-2.08-14.56-7.43-16.41-16.23a51.08,51.08,0,0,1,.11-22.25c2.57-10.92,12.93-18.15,23.35-16.81a22,22,0,0,1,19.73,22c0,1.5,0,3,0,4.49-.05,5.56-1.43,6.92-7.17,7-6.16,0-12.33,0-18.49,0-1.08,0-2.52-.58-3.17.64s.06,2.57.8,3.71c1.74,2.65,4.38,3.43,7.34,3.47,3.66,0,7.33.1,11,0,4.23-.13,6.16,1.85,6,6,0,1.66-.07,3.33,0,5,.12,2.6-1.15,3.55-3.64,3.47-3-.1-6,0-9,0ZM1079.94,507a6.89,6.89,0,0,0,2,0c1.69-.53,4.42,1.45,5-1.39.5-2.46-1.35-4.26-3.44-5.56a6.32,6.32,0,0,0-5.26-.74c-3.1.93-5.71,3-5.21,6.32.45,3,3.6.79,5.44,1.38A5.29,5.29,0,0,0,1079.94,507Z" transform="translate(-153 -443)" style="fill: #342e6d"/>
    <path d="M1009.75,508.83c0-9.14.09-18.28,0-27.41-.05-3.18,1-4.45,4.29-4.4q16.21.23,32.44,0c3.29,0,4.31,1.17,4.38,4.36.22,9.41-.61,10.42-9.85,10.42-4.16,0-8.35.32-12.47-.09-4.54-.44-4,2.28-4.22,5.19-.25,3.49.91,4.62,4.43,4.45,5.81-.27,11.64.06,17.46-.12,3.47-.1,4.63,1.23,4.66,4.67.08,9.33-.58,10.13-10.09,10.14-4.16,0-8.33.17-12.47-.06-3-.17-4.17.6-4,3.79.27,4.64,0,9.3.09,14s-1.86,6.86-6.58,6.51a18.5,18.5,0,0,0-3.49,0c-3.45.4-4.7-1-4.62-4.5C1009.88,526.77,1009.75,517.8,1009.75,508.83Z" transform="translate(-153 -443)" style="fill: #342e6d"/>
    <path d="M381.91,486.21c-9.82,0-19.64-.12-29.45.06-3.74.06-5.36-.94-5.39-5-.1-13.24-.24-13.24,13-13.24,14.48,0,29,0,43.44,0,8.48,0,13.28,5,13.36,13.29,0,3.61-1.26,5-5,4.95C401.88,486.09,391.9,486.21,381.91,486.21Z" transform="translate(-153 -443)" style="fill: #322c6b"/>
  </g>
</svg>
